<svg width="1920" xmlns="http://www.w3.org/2000/svg" height="1080" id="screenshot-dde96ad6-25f3-8009-8006-e322845d1c26" viewBox="-0 0 1920 1080" xmlns:xlink="http://www.w3.org/1999/xlink" fill="none" version="1.1"><g id="shape-dde96ad6-25f3-8009-8006-e322845d1c26"><defs><clipPath id="frame-clip-dde96ad6-25f3-8009-8006-e322845d1c26-render-1" class="frame-clip frame-clip-def"><rect rx="0" ry="0" x="0" y="0" width="1919.9999999999995" height="1080" transform="matrix(1.000000, 0.000000, 0.000000, 1.000000, 0.000000, 0.000000)"/></clipPath></defs><g class="frame-container-wrapper"><g class="frame-container-blur"><g class="frame-container-shadows"><g clip-path="url(#frame-clip-dde96ad6-25f3-8009-8006-e322845d1c26-render-1)" fill="none"><g class="fills" id="fills-dde96ad6-25f3-8009-8006-e322845d1c26"><rect width="1919.9999999999995" height="1080" class="frame-background" x="0" transform="matrix(1.000000, 0.000000, 0.000000, 1.000000, 0.000000, 0.000000)" style="fill: rgb(129, 192, 215); fill-opacity: 1;" ry="0" rx="0" y="0"/></g><g class="frame-children"><g id="shape-3c7aaaf4-8b11-8050-8006-e5ca9d5ded1e" rx="0" ry="0" style="opacity: 0.4;"><g id="shape-3c7aaaf4-8b11-8050-8006-e5c66d7407a6"><g class="fills" id="fills-3c7aaaf4-8b11-8050-8006-e5c66d7407a6"><rect rx="50" ry="50" x="1539.9393401009356" y="568.9393401009354" transform="matrix(0.707613, 0.706600, -0.707613, 0.706600, 1346.407657, -1125.133837)" width="987.1213197981288" height="987.121319798129" style="fill: rgb(73, 116, 89); fill-opacity: 1;"/></g></g><g id="shape-3c7aaaf4-8b11-8050-8006-e5c9bf71d054"><g class="fills" id="fills-3c7aaaf4-8b11-8050-8006-e5c9bf71d054"><path d="M1859.787353515625,538.72509765625L1998.3809814453125,400.3299560546875C2017.9080810546875,380.8309326171875,2049.615234375,380.830810546875,2069.142333984375,400.3299560546875L2200.38037109375,531.3800048828125C2177.74365234375,555.3804931640625,2145.647216796875,570.3714599609375,2110.0751953125,570.3714599609375C2097.39697265625,570.3714599609375,2085.16015625,568.4671630859375,2073.6357421875,564.9293212890625C2058.8701171875,583.2071533203125,2036.2786865234375,594.906982421875,2010.9747314453125,594.906982421875C1987.7314453125,594.906982421875,1966.7767333984375,585.0350341796875,1952.0823974609375,569.2608642578125C1946.9945068359375,569.9869384765625,1941.7529296875,570.3714599609375,1936.422119140625,570.3714599609375C1906.5291748046875,570.3714599609375,1879.4395751953125,558.27880859375,1859.787353515625,538.72509765625" style="fill: rgb(255, 255, 255); fill-opacity: 1;"/></g></g></g><g id="shape-3c7aaaf4-8b11-8050-8006-e5c4ee71b6be" rx="0" ry="0"><g id="shape-6accca73-ee36-801e-8006-e5c40c25c059"><g class="fills" id="fills-6accca73-ee36-801e-8006-e5c40c25c059"><rect rx="50" ry="50" x="1504.4955523633719" y="517.2080518330763" transform="matrix(0.707436, 0.706778, -0.707436, 0.706778, 968.565907, -978.894759)" width="325.02583415466256" height="325.0258341546628" style="fill: rgb(46, 154, 72); fill-opacity: 1;"/></g></g><g id="shape-3c7aaaf4-8b11-8050-8006-e5c7fc346bb1"><g class="fills" id="fills-3c7aaaf4-8b11-8050-8006-e5c7fc346bb1"><path d="M1832.5648193359375,830L1501.4481201171875,830L1469.1036376953125,797.6856689453125C1449.581298828125,778.1815185546875,1449.5814208984375,746.5118408203125,1469.1036376953125,727.0078125L1631.6346435546875,564.6280517578125C1651.156982421875,545.1239013671875,1682.85595703125,545.1239013671875,1702.3782958984375,564.6280517578125L1864.9093017578125,727.0078125C1884.4315185546875,746.5118408203125,1884.431640625,778.1815185546875,1864.9093017578125,797.6856689453125L1832.5648193359375,830" style="fill: rgb(30, 119, 51); fill-opacity: 1;"/></g></g><g id="shape-3c7aaaf4-8b11-8050-8006-e5c92c4dbe26"><g class="fills" id="fills-3c7aaaf4-8b11-8050-8006-e5c92c4dbe26"><path d="M1631.3531494140625,645.3388671875C1639.74169921875,636.9580078125,1650.378662109375,632.178466796875,1661.331787109375,631L1672.1181640625,631C1683.0711669921875,632.178466796875,1693.7081298828125,636.9580078125,1702.0966796875,645.3388671875L1881.0780029296875,824.153564453125C1891.8970947265625,834.962646484375,1896.7203369140625,849.50830078125,1895.5474853515625,863.64892578125C1889.289306640625,892.9752197265625,1863.196533203125,915,1832,915L1502,915C1469.4547119140625,915,1442.4638671875,891.0294189453125,1437.734619140625,859.795166015625C1437.654296875,846.8988037109375,1442.5345458984375,833.981689453125,1452.371826171875,824.153564453125L1631.3531494140625,645.3388671875" style="fill: rgb(46, 154, 72); fill-opacity: 1;"/></g></g><g id="shape-3c7aaaf4-8b11-8050-8006-e5c603cf593b"><g class="fills" id="fills-3c7aaaf4-8b11-8050-8006-e5c603cf593b"><rect rx="20" ry="20" x="1617.0084694407033" y="853" transform="matrix(1.000000, 0.000000, 0.000000, 1.000000, 0.000000, 0.000000)" width="100" height="175" style="fill: rgb(100, 63, 25); fill-opacity: 1;"/></g></g></g><g id="shape-3c7aaaf4-8b11-8050-8006-e5caa746164e" rx="0" ry="0"><g id="shape-3c7aaaf4-8b11-8050-8006-e5caa746164f"><g class="fills" id="fills-3c7aaaf4-8b11-8050-8006-e5caa746164f"><rect rx="50" ry="50" x="-399.72467752214567" y="449.56043988180454" transform="matrix(0.707436, 0.706778, -0.707436, 0.706778, 744.090053, 189.777201)" width="1085.9999999999998" height="1086" style="fill: rgb(73, 116, 89); fill-opacity: 1;"/></g></g><g id="shape-3c7aaaf4-8b11-8050-8006-e5caa7461650"><g class="fills" id="fills-3c7aaaf4-8b11-8050-8006-e5caa7461650"><path d="M-47.78997802734375,416.1749267578125L108.19125366210938,260.3388671875C127.71343994140625,240.8348388671875,159.41262817382812,240.8348388671875,178.934814453125,260.3388671875L326.8256530761719,408.092041015625C301.9278259277344,434.5032958984375,266.6252136230469,451,227.5,451C213.55523681640625,451,200.0960693359375,448.9044189453125,187.42047119140625,445.01123046875C171.17977905273438,465.125,146.33157348632812,478,118.5,478C92.93478393554688,478,69.88690185546875,467.136474609375,53.724700927734375,449.77783203125C48.1285400390625,450.5767822265625,42.363311767578125,451,36.5,451C3.620880126953125,451,-26.1746826171875,437.6927490234375,-47.78997802734375,416.1749267578125" style="fill: rgb(255, 255, 255); fill-opacity: 1;"/></g></g></g><g id="shape-dde96ad6-25f3-8009-8006-e322a77993e4" style="opacity: 1;"><g class="fills" id="fills-dde96ad6-25f3-8009-8006-e322a77993e4"><rect rx="0" ry="0" x="-40.99999999999994" y="963" transform="matrix(1.000000, 0.000000, 0.000000, 1.000000, 0.000000, 0.000000)" width="1998" height="218" style="fill: rgb(39, 37, 43); fill-opacity: 1;"/></g></g><g id="shape-6accca73-ee36-801e-8006-e5c4039dcc09" rx="0" ry="0"><g id="shape-633ece9a-6d51-807b-8006-e5cb291ec21c"><g class="frame-container-wrapper"><g class="frame-container-blur"><g class="frame-container-shadows"><g fill="none"><g class="fills" id="fills-633ece9a-6d51-807b-8006-e5cb291ec21c"><rect rx="0" ry="0" x="511.00000000000006" y="816" width="700.0000000000005" height="200.00000000000023" transform="matrix(1.000000, 0.000000, 0.000000, 1.000000, 0.000000, 0.000000)" class="frame-background"/></g><g class="frame-children"><g id="shape-633ece9a-6d51-807b-8006-e5cb291ec21e"><g class="fills" id="fills-633ece9a-6d51-807b-8006-e5cb291ec21e"><ellipse cx="611.0000000000001" cy="916" rx="100.00000000000009" ry="100" transform="matrix(1.000000, 0.000000, 0.000000, 1.000000, 0.000000, 0.000000)" style="fill: rgb(52, 52, 53); fill-opacity: 1;"/></g></g><g id="shape-633ece9a-6d51-807b-8006-e5cb291ec21d"><g class="fills" id="fills-633ece9a-6d51-807b-8006-e5cb291ec21d"><ellipse cx="1111.0000000000005" cy="916" rx="100.00000000000011" ry="100" transform="matrix(1.000000, 0.000000, 0.000000, 1.000000, 0.000000, 0.000000)" style="fill: rgb(52, 52, 53); fill-opacity: 1;"/></g></g></g></g></g></g></g></g><g id="shape-633ece9a-6d51-807b-8006-e5cb1e585ebf" rx="0" ry="0"><g id="shape-633ece9a-6d51-807b-8006-e5cb4fa44d3b"><g class="fills" id="fills-633ece9a-6d51-807b-8006-e5cb4fa44d3b"><rect rx="34.493127147766245" ry="34.493127147766245" x="474.00000000000006" y="385" transform="matrix(1.000000, 0.000000, 0.000000, 1.000000, 0.000000, 0.000000)" width="658" height="68.98625429553249" style="fill: rgb(106, 85, 128); fill-opacity: 1;"/></g></g><g id="shape-6accca73-ee36-801e-8006-e5c3462d9827"><g class="fills" id="fills-6accca73-ee36-801e-8006-e5c3462d9827"><rect rx="48" ry="48" x="93" y="415.2405498281787" transform="matrix(1.000000, 0.000000, 0.000000, 1.000000, 0.000000, 0.000000)" width="1318" height="519.7594501718213" style="fill: rgb(150, 120, 180); fill-opacity: 1;"/></g></g><g id="shape-6accca73-ee36-801e-8006-e5c3823a264b"><g class="fills" id="fills-6accca73-ee36-801e-8006-e5c3823a264b"><rect rx="48" ry="48" x="93.00000000000006" y="415.2405498281787" transform="matrix(1.000000, 0.000000, 0.000000, 1.000000, 0.000000, 0.000000)" width="965" height="519.7594501718213" style="fill: rgb(106, 85, 128); fill-opacity: 1;"/></g></g></g><g id="shape-633ece9a-6d51-807b-8006-e64fac7569c8" rx="0" ry="0"><g id="shape-633ece9a-6d51-807b-8006-e64f51e5d90f"><g class="fills" id="fills-633ece9a-6d51-807b-8006-e64f51e5d90f"><rect rx="16" ry="16" x="1092" y="476" transform="matrix(1.000000, 0.000000, 0.000000, 1.000000, 0.000000, 0.000000)" width="296.0000000000002" height="168" style="fill: rgb(128, 128, 131); fill-opacity: 1;"/></g></g><g id="shape-633ece9a-6d51-807b-8006-e64f75351b01"><g class="fills" id="fills-633ece9a-6d51-807b-8006-e64f75351b01"><rect rx="16" ry="16" x="156.00000000000006" y="486" transform="matrix(1.000000, 0.000000, 0.000000, 1.000000, 0.000000, 0.000000)" width="846" height="168" style="fill: rgb(52, 52, 53); fill-opacity: 1;"/></g></g><g id="shape-633ece9a-6d51-807b-8006-e64f85bd0fb2"><g class="fills" id="fills-633ece9a-6d51-807b-8006-e64f85bd0fb2"><rect rx="16" ry="16" x="430.00000000000006" y="666" transform="matrix(1.000000, 0.000000, 0.000000, 1.000000, 0.000000, 0.000000)" width="198.99999999999994" height="243.00000000000045" style="fill: rgb(52, 52, 53); fill-opacity: 1;"/></g></g><g id="shape-633ece9a-6d51-807b-8006-e65049dd87d6"><g class="fills" id="fills-633ece9a-6d51-807b-8006-e65049dd87d6"><rect rx="0" ry="0" x="415.00000000000006" y="486" transform="matrix(1.000000, 0.000000, 0.000000, 1.000000, 0.000000, 0.000000)" width="15" height="168" style="fill: rgb(177, 178, 181); fill-opacity: 1;"/></g></g><g id="shape-633ece9a-6d51-807b-8006-e6506848c5b3"><g class="fills" id="fills-633ece9a-6d51-807b-8006-e6506848c5b3"><rect rx="0" ry="0" x="629" y="486" transform="matrix(1.000000, 0.000000, 0.000000, 1.000000, 0.000000, 0.000000)" width="15" height="168" style="fill: rgb(177, 178, 181); fill-opacity: 1;"/></g></g><g id="shape-633ece9a-6d51-807b-8006-e650f659e084"><g class="fills" id="fills-633ece9a-6d51-807b-8006-e650f659e084"><path d="M1237.0872802734375,644L1108,644C1099.16943359375,644,1092,636.8306884765625,1092,628L1092,492C1092,483.1693115234375,1099.16943359375,476,1108,476L1298.923828125,476L1237.0872802734375,644M1286.294677734375,644L1277.5797119140625,644L1339.416259765625,476L1348.1312255859375,476L1286.294677734375,644M1353.459228515625,476L1372,476C1380.83056640625,476,1388,483.1693115234375,1388,492L1388,628C1388,636.8306884765625,1380.83056640625,644,1372,644L1291.62255859375,644L1353.459228515625,476" style="fill: rgb(52, 52, 53); fill-opacity: 1;"/></g></g></g><g id="shape-633ece9a-6d51-807b-8006-e5cb00873a4e"><g class="frame-container-wrapper"><g class="frame-container-blur"><defs><filter id="filter-shadow-render-29" x="-0.04666666666666663" y="-0.06666666666666667" width="1.14" height="1.1333333333333333" filterUnits="objectBoundingBox" color-interpolation-filters="sRGB"><feFlood flood-opacity="0" result="BackgroundImageFix"/><feColorMatrix in="SourceAlpha" type="matrix" values="0 0 0 0 0 0 0 0 0 0 0 0 0 0 0 0 0 0 127 0"/><feOffset dx="25" dy="0"/><feGaussianBlur stdDeviation="0"/><feColorMatrix type="matrix" values="0 0 0 0 0.23921568627450981 0 0 0 0 0.23921568627450981 0 0 0 0 0.23921568627450981 0 0 0 1 0"/><feBlend mode="normal" in2="BackgroundImageFix" result="filter_633ece9a-6d51-807b-8006-e5ceaa73f842"/><feBlend mode="normal" in="SourceGraphic" in2="filter_633ece9a-6d51-807b-8006-e5ceaa73f842" result="shape"/></filter></defs><g class="frame-container-shadows" filter="url(#filter-shadow-render-29)"><g fill="none"><g class="fills" id="fills-633ece9a-6d51-807b-8006-e5cb00873a4e"><rect rx="0" ry="0" x="135.00000000000006" y="816" width="750.0000000000007" height="225" transform="matrix(1.000000, 0.000000, 0.000000, 1.000000, 0.000000, 0.000000)" class="frame-background"/></g><g class="frame-children"><g id="shape-633ece9a-6d51-807b-8006-e5cafa5abef5"><g class="fills" id="fills-633ece9a-6d51-807b-8006-e5cafa5abef5"><ellipse cx="247.5000000000002" cy="928.5" rx="112.50000000000014" ry="112.5" transform="matrix(1.000000, 0.000000, 0.000000, 1.000000, 0.000000, 0.000000)" style="fill: rgb(86, 86, 87); fill-opacity: 1;"/></g></g><g id="shape-633ece9a-6d51-807b-8006-e5cae5ab432d"><g class="fills" id="fills-633ece9a-6d51-807b-8006-e5cae5ab432d"><ellipse cx="772.5000000000003" cy="928.5" rx="112.50000000000011" ry="112.5" transform="matrix(1.000000, 0.000000, 0.000000, 1.000000, 0.000000, 0.000000)" style="fill: rgb(86, 86, 87); fill-opacity: 1;"/></g></g></g></g></g></g></g></g></g><g id="shape-6accca73-ee36-801e-8006-e5c3e797b438"><g class="fills" id="fills-6accca73-ee36-801e-8006-e5c3e797b438"><path d="M1512.965576171875,40C1570.3179931640625,40,1618.71923828125,78.69305419921875,1633.549072265625,131.41748046875C1650.6539306640625,112.930908203125,1675.119140625,101.31494140625,1702.271484375,101.31494140625C1753.88623046875,101.31494140625,1795.7908935546875,143.28961181640625,1795.7908935546875,194.9906005859375C1821.7047119140625,205.66473388671875,1840,231.162353515625,1840,260.8992919921875L1840,260.9000244140625C1840,300.14111328125,1808.14111328125,332,1768.9000244140625,332L1406.0999755859375,332C1366.85888671875,332,1335,300.14111328125,1335,260.9000244140625L1335,260.8992919921875C1335,227.0419921875,1358.716552734375,198.6802978515625,1390.428466796875,191.53515625C1388.646240234375,183.17181396484375,1387.706298828125,174.42926025390625,1387.706298828125,165.46856689453125C1387.706298828125,96.2205810546875,1443.833251953125,40,1512.965576171875,40" style="fill: rgb(255, 255, 255); fill-opacity: 1;"/></g></g></g></g></g></g></g></g></svg>