<svg width="300" xmlns="http://www.w3.org/2000/svg" height="300"
    id="screenshot-fd678bec-1470-80af-8006-f2d33cefa2fb" viewBox="0 0 300 300"
    xmlns:xlink="http://www.w3.org/1999/xlink" fill="none" version="1.1">
    <g id="shape-fd678bec-1470-80af-8006-f2d33cefa2fb" rx="0" ry="0">
        <g id="shape-fd678bec-1470-80af-8006-f2d2ee4461a5">
            <defs>
                <linearGradient id="fill-color-gradient-render-2-0" x1="-0.0004173935222060223"
                    y1="-0.0018314277817281634" x2="1.002510556636841" y2="0.9876699442144916"
                    gradientTransform="">
                    <stop offset="0" stop-color="#9678b4" stop-opacity="1" />
                    <stop offset="1" stop-color="#6a5580" stop-opacity="1" />
                </linearGradient>
                <pattern patternUnits="userSpaceOnUse" x="0" y="0" width="300"
                    height="299.9997657501344"
                    patternTransform="matrix(1.000000, 0.000000, 0.000000, 1.000000, 0.000000, 0.000000)"
                    id="fill-0-render-2">
                    <g>
                        <rect width="300" height="299.9997657501344"
                            style="fill: url(&quot;#fill-color-gradient-render-2-0&quot;);" />
                    </g>
                </pattern>
            </defs>
            <g class="fills" id="fills-fd678bec-1470-80af-8006-f2d2ee4461a5">
                <path
                    d="M128.155517578125,9.232196807861328C128.6650390625,8.735294342041016,128.91748046875,8.482147216796875,129.132080078125,8.275920867919922C140.8623046875,-2.7586441040039062,159.1376953125,-2.7586441040039062,170.867919921875,8.275920867919922C171.08251953125,8.482147216796875,171.3349609375,8.735294342041016,171.844482421875,9.232196807861328C172.15283203125,9.522815704345703,172.3037109375,9.672737121582031,172.443115234375,9.813346862792969C179.953125,16.975967407226562,190.575439453125,19.81659698486328,200.6552734375,17.36969757080078C200.848388671875,17.322830200195312,201.05859375,17.266700744628906,201.470947265625,17.163551330566406C202.155029296875,16.98542022705078,202.49755859375,16.90093231201172,202.789306640625,16.82593536376953C218.4599609375,13.132125854492188,234.30126953125,22.272857666015625,238.934326171875,37.695091247558594C239.014892578125,37.98570251464844,239.11328125,38.32331085205078,239.30517578125,39.00774383544922C239.41796875,39.42009735107422,239.47900390625,39.62628936767578,239.53125,39.82319641113281C242.449951171875,49.77021026611328,250.22900390625,57.551597595214844,260.174560546875,60.46729278564453C260.373046875,60.523536682128906,260.577392578125,60.57982635498047,260.99072265625,60.692230224609375C261.676025390625,60.889068603515625,262.01171875,60.982704162597656,262.302001953125,61.06720733642578C277.72509765625,65.6985092163086,286.870849609375,81.54258728027344,283.172607421875,97.20841979980469C283.099365234375,97.49903869628906,283.015869140625,97.84585571289062,282.8388671875,98.53021240234375C282.733154296875,98.94267272949219,282.6767578125,99.14903259277344,282.62744140625,99.34587097167969C280.18212890625,109.4241943359375,283.026123046875,120.04624938964844,290.186767578125,127.55569458007812C290.325927734375,127.6964111328125,290.4765625,127.84629821777344,290.766845703125,128.1558074951172C291.265869140625,128.66201782226562,291.520751953125,128.91505432128906,291.72412109375,129.13076782226562C302.76123046875,140.8591766357422,302.76123046875,159.1403350830078,291.72412109375,170.8687286376953C291.520751953125,171.08444213867188,291.265869140625,171.33790588378906,290.766845703125,171.84371948242188C290.4765625,172.15345764160156,290.325927734375,172.30345153808594,290.186767578125,172.4438018798828C283.026123046875,179.95376586914062,280.18212890625,190.5752410888672,282.62744140625,200.65383911132812C282.6767578125,200.85067749023438,282.733154296875,201.0566864013672,282.8388671875,201.46897888183594C283.015869140625,202.15383911132812,283.099365234375,202.50048828125,283.172607421875,202.79159545898438C286.870849609375,218.4569091796875,277.72509765625,234.30084228515625,262.302001953125,238.9322509765625C262.01171875,239.01675415039062,261.676025390625,239.11056518554688,260.99072265625,239.30740356445312C260.577392578125,239.419921875,260.373046875,239.47647094726562,260.174560546875,239.53231811523438C250.22900390625,242.44790649414062,242.449951171875,250.2296142578125,239.53125,260.17681884765625C239.47900390625,260.3734130859375,239.41796875,260.5796813964844,239.30517578125,260.9920654296875C239.11328125,261.6764831542969,239.014892578125,262.0137634277344,238.934326171875,262.3048095703125C234.30126953125,277.72698974609375,218.4599609375,286.8673400878906,202.789306640625,283.173828125C202.49755859375,283.0984191894531,202.155029296875,283.0140686035156,201.470947265625,282.83642578125C201.05859375,282.73291015625,200.848388671875,282.6764221191406,200.6552734375,282.6295471191406C190.575439453125,280.18341064453125,179.953125,283.02325439453125,172.443115234375,290.1864013671875C172.3037109375,290.3274230957031,172.15283203125,290.4764099121094,171.844482421875,290.767333984375C171.3349609375,291.26397705078125,171.08251953125,291.5176696777344,170.867919921875,291.7237854003906C159.1376953125,302.75885009765625,140.8623046875,302.75885009765625,129.132080078125,291.7237854003906C128.91748046875,291.5176696777344,128.6650390625,291.26397705078125,128.155517578125,290.767333984375C127.84716796875,290.4764099121094,127.6962890625,290.3274230957031,127.55712890625,290.1864013671875C120.046875,283.02325439453125,109.424560546875,280.18341064453125,99.3447265625,282.6295471191406C99.151611328125,282.6764221191406,98.94140625,282.73291015625,98.529052734375,282.83642578125C97.844970703125,283.0140686035156,97.50244140625,283.0984191894531,97.210693359375,283.173828125C81.5400390625,286.8673400878906,65.698974609375,277.72698974609375,61.065673828125,262.3048095703125C60.985107421875,262.0137634277344,60.88671875,261.6764831542969,60.69482421875,260.9920654296875C60.58203125,260.5796813964844,60.521240234375,260.3734130859375,60.46875,260.17681884765625C57.550048828125,250.2296142578125,49.77099609375,242.44790649414062,39.825439453125,239.53231811523438C39.626953125,239.47647094726562,39.422607421875,239.419921875,39.00927734375,239.30740356445312C38.323974609375,239.11056518554688,37.988037109375,239.01675415039062,37.69775390625,238.9322509765625C22.2747802734375,234.30084228515625,13.12890625,218.4569091796875,16.827392578125,202.79159545898438C16.900634765625,202.50048828125,16.9840087890625,202.15383911132812,17.1612548828125,201.46897888183594C17.266845703125,201.0566864013672,17.3233642578125,200.85067749023438,17.3726806640625,200.65383911132812C19.81787109375,190.5752410888672,16.973876953125,179.95376586914062,9.8133544921875,172.4438018798828C9.674072265625,172.30345153808594,9.5233154296875,172.15345764160156,9.233154296875,171.84371948242188C8.734130859375,171.33790588378906,8.47900390625,171.08444213867188,8.2760009765625,170.8687286376953C-2.76123046875,159.1403350830078,-2.76123046875,140.8591766357422,8.2760009765625,129.13076782226562C8.47900390625,128.91505432128906,8.734130859375,128.66201782226562,9.233154296875,128.1558074951172C9.5233154296875,127.84629821777344,9.674072265625,127.6964111328125,9.8133544921875,127.55569458007812C16.973876953125,120.04624938964844,19.81787109375,109.4241943359375,17.3726806640625,99.34587097167969C17.3233642578125,99.14903259277344,17.266845703125,98.94267272949219,17.1612548828125,98.53021240234375C16.9840087890625,97.84585571289062,16.900634765625,97.49903869628906,16.827392578125,97.20841979980469C13.12890625,81.54258728027344,22.2747802734375,65.6985092163086,37.69775390625,61.06720733642578C37.988037109375,60.982704162597656,38.323974609375,60.889068603515625,39.00927734375,60.692230224609375C39.422607421875,60.57982635498047,39.626953125,60.523536682128906,39.825439453125,60.46729278564453C49.77099609375,57.551597595214844,57.550048828125,49.77021026611328,60.46875,39.82319641113281C60.521240234375,39.62628936767578,60.58203125,39.42009735107422,60.69482421875,39.00774383544922C60.88671875,38.32331085205078,60.985107421875,37.98570251464844,61.065673828125,37.695091247558594C65.698974609375,22.272857666015625,81.5400390625,13.132125854492188,97.210693359375,16.82593536376953C97.50244140625,16.90093231201172,97.844970703125,16.98542022705078,98.529052734375,17.163551330566406C98.94140625,17.266700744628906,99.151611328125,17.322830200195312,99.3447265625,17.36969757080078C109.424560546875,19.81659698486328,120.046875,16.975967407226562,127.55712890625,9.813346862792969C127.6962890625,9.672737121582031,127.84716796875,9.522815704345703,128.155517578125,9.232196807861328Z"
                    fill="url(#fill-0-render-2)" />
            </g>
        </g>
        <g id="shape-fd678bec-1470-80af-8006-f2d30b4f8c8b" filter="url(#filter-render-3)" rx="0"
            ry="0">
            <defs>
                <filter id="filter-render-3" x="-0.1063813381491509" y="-0.16666409643364719"
                    width="1.212762676298302" height="1.4999922893009416"
                    filterUnits="objectBoundingBox" color-interpolation-filters="sRGB">
                    <feFlood flood-opacity="0" result="BackgroundImageFix" />
                    <feColorMatrix in="SourceAlpha" type="matrix"
                        values="0 0 0 0 0 0 0 0 0 0 0 0 0 0 0 0 0 0 127 0" />
                    <feOffset dx="0" dy="10" />
                    <feGaussianBlur stdDeviation="0" />
                    <feColorMatrix type="matrix" values="0 0 0 0 0 0 0 0 0 0 0 0 0 0 0 0 0 0 0.2 0" />
                    <feBlend mode="normal" in2="BackgroundImageFix"
                        result="filter_dde96ad6-25f3-8009-8006-e31e09ef8fcc" />
                    <feBlend mode="normal" in="SourceGraphic"
                        in2="filter_dde96ad6-25f3-8009-8006-e31e09ef8fcc" result="shape" />
                </filter>
                <filter id="filter-shadow-render-3" x="-0.1063813381491509" y="-0.16666409643364719"
                    width="1.212762676298302" height="1.4999922893009416"
                    filterUnits="objectBoundingBox" color-interpolation-filters="sRGB">
                    <feFlood flood-opacity="0" result="BackgroundImageFix" />
                    <feColorMatrix in="SourceAlpha" type="matrix"
                        values="0 0 0 0 0 0 0 0 0 0 0 0 0 0 0 0 0 0 127 0" />
                    <feOffset dx="0" dy="10" />
                    <feGaussianBlur stdDeviation="0" />
                    <feColorMatrix type="matrix" values="0 0 0 0 0 0 0 0 0 0 0 0 0 0 0 0 0 0 0.2 0" />
                    <feBlend mode="normal" in2="BackgroundImageFix"
                        result="filter_dde96ad6-25f3-8009-8006-e31e09ef8fcc" />
                    <feBlend mode="normal" in="SourceGraphic"
                        in2="filter_dde96ad6-25f3-8009-8006-e31e09ef8fcc" result="shape" />
                </filter>
            </defs>
        </g>
    </g>
</svg>
